<svg xmlns="http://www.w3.org/2000/svg" viewBox="0 0 1200 650" role="img" aria-labelledby="title desc">
  <title id="title">Arduino Mega Board</title>
  <desc id="desc">Vector illustration of Arduino Mega 2560 microcontroller board.</desc>
  <rect width="1200" height="650" fill="#071014" rx="12"/>
  <defs>
    <pattern id="grid" width="40" height="40" patternUnits="userSpaceOnUse">
      <path d="M 40 0 L 0 0 0 40" fill="none" stroke="rgba(255, 255, 255, 0.03)" stroke-width="1"/>
    </pattern>
    <linearGradient id="boardGrad" x1="0%" y1="0%" x2="100%" y2="100%">
        <stop offset="0%" stop-color="#006468"/>
        <stop offset="100%" stop-color="#004d50"/>
    </linearGradient>
    <linearGradient id="chipGrad" x1="0%" y1="0%" x2="100%" y2="100%">
        <stop offset="0%" stop-color="#2a2a2a"/>
        <stop offset="100%" stop-color="#111111"/>
    </linearGradient>
</defs>
  <rect width="1200" height="650" fill="url(#grid)" rx="12"/>
  
  <text x="600" y="80" text-anchor="middle" fill="#00ffd5" font-size="36" font-family="Arial" font-weight="bold">Arduino Mega 2560 Overview</text>
  <text x="600" y="120" text-anchor="middle" fill="rgba(246, 251, 255, 0.72)" font-size="18" font-family="Arial">A powerful board designed for complex projects requiring many I/O lines and memory.</text>
  
  <!-- Draw Mega -->
  
    <g transform="translate(600, 360) scale(1.2)">
        <!-- Board base -->
        <path d="M -180 -100 L 180 -100 C 190 -100, 200 -90, 200 -80 L 200 80 C 200 90, 190 100, 180 100 L -180 100 C -190 100, -200 90, -200 80 L -200 -80 C -200 -90, -190 -100, -180 -100 Z" fill="url(#boardGrad)" stroke="#00979d" stroke-width="2"/>
        
        <!-- USB Port (Type B) -->
        <rect x="-210" y="-85" width="40" height="45" rx="3" fill="#c0c0c0" stroke="#888" stroke-width="2"/>
        <rect x="-200" y="-75" width="20" height="25" fill="#e6e6e6" rx="2"/>
        
        <!-- Power Jack -->
        <rect x="-215" y="45" width="45" height="35" rx="2" fill="#222" stroke="#111" stroke-width="1"/>
        <circle cx="-190" cy="62.5" r="8" fill="#111"/>
        
        <!-- ATmega2560 Chip -->
        <!-- Square flat package (TQFP 100) -->
        <rect x="-20" y="-30" width="60" height="60" rx="3" fill="url(#chipGrad)" stroke="#444" stroke-width="1"/>
        <!-- Chip pins (simulated lines) -->
        <rect x="-25" y="-20" width="5" height="40" fill="#bbb"/>
        <rect x="40" y="-20" width="5" height="40" fill="#bbb"/>
        <rect x="-10" y="-35" width="40" height="5" fill="#bbb"/>
        <rect x="-10" y="30" width="40" height="5" fill="#bbb"/>
        <text x="10" y="0" fill="#fff" font-family="monospace" font-size="6" text-anchor="middle" opacity="0.6">ATMEGA</text>
        <text x="10" y="10" fill="#fff" font-family="monospace" font-size="6" text-anchor="middle" opacity="0.6">2560</text>
        
        <!-- ATmega16U2 (USB Chip) -->
        <rect x="-130" y="-40" width="25" height="25" rx="2" fill="url(#chipGrad)" stroke="#444" stroke-width="1"/>
        
        <!-- Reset Button -->
        <rect x="80" y="-95" width="20" height="15" rx="2" fill="#dcdcdc" stroke="#999" stroke-width="1"/>
        <circle cx="90" cy="-87.5" r="4" fill="#e74c3c"/>

        <!-- Top Header Pins (Digital 0-13, AREF, GND, SDA, SCL) -->
        <!-- Usually a long block from center to right edge -->
        <rect x="-60" y="-95" width="240" height="12" fill="#222" rx="2"/>
        <!-- Bottom Header Pins (Power & Analog 0-15) -->
        <!-- Power & A0-A7 -->
        <rect x="-110" y="83" width="180" height="12" fill="#222" rx="2"/>
        
        <!-- Double row header on the far right (Digital 22-53) -->
        <rect x="175" y="-80" width="18" height="160" fill="#222" rx="2"/>
        
        <!-- ICSP Header -->
        <rect x="-80" y="10" width="20" height="30" fill="#222" rx="2"/>
    <circle cx="-55.0" cy="-89" r="2.5" fill="#ffd700"/><circle cx="-45.5" cy="-89" r="2.5" fill="#ffd700"/><circle cx="-36.0" cy="-89" r="2.5" fill="#ffd700"/><circle cx="-26.5" cy="-89" r="2.5" fill="#ffd700"/><circle cx="-17.0" cy="-89" r="2.5" fill="#ffd700"/><circle cx="-7.5" cy="-89" r="2.5" fill="#ffd700"/><circle cx="2.0" cy="-89" r="2.5" fill="#ffd700"/><circle cx="11.5" cy="-89" r="2.5" fill="#ffd700"/><circle cx="21.0" cy="-89" r="2.5" fill="#ffd700"/><circle cx="30.5" cy="-89" r="2.5" fill="#ffd700"/><circle cx="40.0" cy="-89" r="2.5" fill="#ffd700"/><circle cx="49.5" cy="-89" r="2.5" fill="#ffd700"/><circle cx="59.0" cy="-89" r="2.5" fill="#ffd700"/><circle cx="68.5" cy="-89" r="2.5" fill="#ffd700"/><circle cx="78.0" cy="-89" r="2.5" fill="#ffd700"/><circle cx="87.5" cy="-89" r="2.5" fill="#ffd700"/><circle cx="97.0" cy="-89" r="2.5" fill="#ffd700"/><circle cx="106.5" cy="-89" r="2.5" fill="#ffd700"/><circle cx="116.0" cy="-89" r="2.5" fill="#ffd700"/><circle cx="125.5" cy="-89" r="2.5" fill="#ffd700"/><circle cx="135.0" cy="-89" r="2.5" fill="#ffd700"/><circle cx="144.5" cy="-89" r="2.5" fill="#ffd700"/><circle cx="154.0" cy="-89" r="2.5" fill="#ffd700"/><circle cx="163.5" cy="-89" r="2.5" fill="#ffd700"/><circle cx="-105.0" cy="89" r="2.5" fill="#ffd700"/><circle cx="-95.5" cy="89" r="2.5" fill="#ffd700"/><circle cx="-86.0" cy="89" r="2.5" fill="#ffd700"/><circle cx="-76.5" cy="89" r="2.5" fill="#ffd700"/><circle cx="-67.0" cy="89" r="2.5" fill="#ffd700"/><circle cx="-57.5" cy="89" r="2.5" fill="#ffd700"/><circle cx="-48.0" cy="89" r="2.5" fill="#ffd700"/><circle cx="-38.5" cy="89" r="2.5" fill="#ffd700"/><circle cx="-29.0" cy="89" r="2.5" fill="#ffd700"/><circle cx="-19.5" cy="89" r="2.5" fill="#ffd700"/><circle cx="-10.0" cy="89" r="2.5" fill="#ffd700"/><circle cx="-0.5" cy="89" r="2.5" fill="#ffd700"/><circle cx="9.0" cy="89" r="2.5" fill="#ffd700"/><circle cx="18.5" cy="89" r="2.5" fill="#ffd700"/><circle cx="28.0" cy="89" r="2.5" fill="#ffd700"/><circle cx="37.5" cy="89" r="2.5" fill="#ffd700"/><circle cx="47.0" cy="89" r="2.5" fill="#ffd700"/><circle cx="56.5" cy="89" r="2.5" fill="#ffd700"/><circle cx="179" cy="-75" r="2.5" fill="#ffd700"/><circle cx="189" cy="-75" r="2.5" fill="#ffd700"/><circle cx="179" cy="-65" r="2.5" fill="#ffd700"/><circle cx="189" cy="-65" r="2.5" fill="#ffd700"/><circle cx="179" cy="-55" r="2.5" fill="#ffd700"/><circle cx="189" cy="-55" r="2.5" fill="#ffd700"/><circle cx="179" cy="-45" r="2.5" fill="#ffd700"/><circle cx="189" cy="-45" r="2.5" fill="#ffd700"/><circle cx="179" cy="-35" r="2.5" fill="#ffd700"/><circle cx="189" cy="-35" r="2.5" fill="#ffd700"/><circle cx="179" cy="-25" r="2.5" fill="#ffd700"/><circle cx="189" cy="-25" r="2.5" fill="#ffd700"/><circle cx="179" cy="-15" r="2.5" fill="#ffd700"/><circle cx="189" cy="-15" r="2.5" fill="#ffd700"/><circle cx="179" cy="-5" r="2.5" fill="#ffd700"/><circle cx="189" cy="-5" r="2.5" fill="#ffd700"/><circle cx="179" cy="5" r="2.5" fill="#ffd700"/><circle cx="189" cy="5" r="2.5" fill="#ffd700"/><circle cx="179" cy="15" r="2.5" fill="#ffd700"/><circle cx="189" cy="15" r="2.5" fill="#ffd700"/><circle cx="179" cy="25" r="2.5" fill="#ffd700"/><circle cx="189" cy="25" r="2.5" fill="#ffd700"/><circle cx="179" cy="35" r="2.5" fill="#ffd700"/><circle cx="189" cy="35" r="2.5" fill="#ffd700"/><circle cx="179" cy="45" r="2.5" fill="#ffd700"/><circle cx="189" cy="45" r="2.5" fill="#ffd700"/><circle cx="179" cy="55" r="2.5" fill="#ffd700"/><circle cx="189" cy="55" r="2.5" fill="#ffd700"/><circle cx="179" cy="65" r="2.5" fill="#ffd700"/><circle cx="189" cy="65" r="2.5" fill="#ffd700"/><circle cx="179" cy="75" r="2.5" fill="#ffd700"/><circle cx="189" cy="75" r="2.5" fill="#ffd700"/></g>

  <!-- Callouts -->
  <g font-family="Arial" font-size="16" fill="#f6fbff">
    <path d="M 330 260 L 250 260 L 200 240" fill="none" stroke="#20d6b5" stroke-width="2"/>
    <text x="240" y="275" text-anchor="middle" fill="#20d6b5">USB Type-B Port</text>
    
    <path d="M 330 420 L 250 420 L 200 440" fill="none" stroke="#20d6b5" stroke-width="2"/>
    <text x="240" y="410" text-anchor="middle" fill="#20d6b5">Power Jack</text>
    <text x="240" y="440" text-anchor="middle" fill="rgba(255,255,255,0.5)" font-size="14">(7V - 12V input)</text>

    <path d="M 600 360 L 600 220 L 650 180" fill="none" stroke="#20d6b5" stroke-width="2"/>
    <text x="660" y="175" text-anchor="start" fill="#20d6b5">ATmega2560</text>
    <text x="660" y="195" text-anchor="start" fill="rgba(255,255,255,0.5)" font-size="14">256 KB Flash / 8 KB SRAM</text>

    <path d="M 720 250 L 760 210 L 820 210" fill="none" stroke="#20d6b5" stroke-width="2"/>
    <text x="830" y="205" text-anchor="start" fill="#20d6b5">Reset Button</text>
    
    <path d="M 830 360 L 890 360 L 930 360" fill="none" stroke="#20d6b5" stroke-width="2"/>
    <text x="940" y="355" text-anchor="start" fill="#20d6b5">54 Digital I/O Pins</text>
    <text x="940" y="375" text-anchor="start" fill="rgba(255,255,255,0.5)" font-size="14">(Includes 15 PWM pins)</text>
    
    <path d="M 620 460 L 650 510 L 700 510" fill="none" stroke="#20d6b5" stroke-width="2"/>
    <text x="710" y="515" text-anchor="start" fill="#20d6b5">16 Analog Input Pins</text>
  </g>
</svg>